PathFileType	4	(X/Y/Z)	C:\Users\Basilio\Documents\Thesis Gigler\squatting_fais\c3dfiles\044\SLS_front_pre4\markers_experimental.trc
DataRate	CameraRate	NumFrames	NumMarkers	Units	OrigDataRate	OrigDataStartFrame	OrigNumFrames
200.000000	200.000000	4	60	mm	200.000000	1131	1293
Frame#	Time	FHD			LBHD			RBHD			C7			T10			LSHO			LUUPA			LMUPA			LDUPA			LLEP			LMEP			LUL			LRFIN			RSHO			RUPA1			RMUPA			RDUPA			RLEP			RMEP			RUL			LASI			RASI			USACR			LSACR			RSACR			LTHI1			LTHI2			LTHI3			LTHI4			LLFC			LMFC			LTIB1			LTIB2			LTIB3			LTIB4			LLMAL			LMMAL			LHEE			LMT1			LMT2			LMT5			RTHI			RTHI2			RTHI3			RTHI4			RLFC			RMFC			RTIB1			RTIB2			RTIB3			RTIB4			RLMAL			RHEE			RMT1			RMT2			RMT5			RUFIN			CLAV			LRAD			RMMAL			
		X1	Y1	Z1	X2	Y2	Z2	X3	Y3	Z3	X4	Y4	Z4	X5	Y5	Z5	X6	Y6	Z6	X7	Y7	Z7	X8	Y8	Z8	X9	Y9	Z9	X10	Y10	Z10	X11	Y11	Z11	X12	Y12	Z12	X13	Y13	Z13	X14	Y14	Z14	X15	Y15	Z15	X16	Y16	Z16	X17	Y17	Z17	X18	Y18	Z18	X19	Y19	Z19	X20	Y20	Z20	X21	Y21	Z21	X22	Y22	Z22	X23	Y23	Z23	X24	Y24	Z24	X25	Y25	Z25	X26	Y26	Z26	X27	Y27	Z27	X28	Y28	Z28	X29	Y29	Z29	X30	Y30	Z30	X31	Y31	Z31	X32	Y32	Z32	X33	Y33	Z33	X34	Y34	Z34	X35	Y35	Z35	X36	Y36	Z36	X37	Y37	Z37	X38	Y38	Z38	X39	Y39	Z39	X40	Y40	Z40	X41	Y41	Z41	X42	Y42	Z42	X43	Y43	Z43	X44	Y44	Z44	X45	Y45	Z45	X46	Y46	Z46	X47	Y47	Z47	X48	Y48	Z48	X49	Y49	Z49	X50	Y50	Z50	X51	Y51	Z51	X52	Y52	Z52	X53	Y53	Z53	X54	Y54	Z54	X55	Y55	Z55	X56	Y56	Z56	X57	Y57	Z57	X58	Y58	Z58	X59	Y59	Z59	X60	Y60	Z60	

1132	5.655	-239.8763427734376	1809.34521484375	-854.7706298828127	-374.1669616699219	1764.313354492188	-924.9871826171877	-405.7595520019532	1742.348510742188	-763.0059204101564	-417.2951049804689	1567.717163085938	-852.678894042969	-393.9203186035157	1263.133666992188	-850.6214599609377	-327.5947875976563	1596.820190429688	-1000.297546386719	-161.8512878417969	1573.861083984375	-1098.942626953125	-134.8324279785157	1585.04736328125	-1057.478149414063	-92.58615112304689	1569.990356445313	-1098.556518554688	-35.36547470092774	1568.395141601563	-1087.573974609375	-44.93901824951173	1492.891357421875	-1074.755249023438	217.8024139404297	1579.557861328125	-968.9736328125002	229.0197753906251	1593.155883789063	-866.997009277344	-326.6820983886719	1579.3662109375	-695.2669067382814	-168.4467315673828	1553.411010742188	-596.7468872070314	-139.5116882324219	1570.579223632813	-635.8411254882814	-98.38382720947268	1554.758178710938	-593.9573974609376	-37.15721130371094	1560.205078125	-604.3862915039064	-38.70056533813477	1478.596313476563	-617.6312866210939	212.4965209960938	1577.752563476563	-734.4338378906251	-214.3612060546876	1079.16015625	-965.5747680664065	-194.3238067626954	1064.84228515625	-750.8032226562501	-375.2838745117188	1117.7939453125	-841.9102783203127	-380.3493041992188	1084.373046875	-867.8637695312502	-374.3935852050782	1087.836547851563	-810.7258911132815	-320.4288024902344	844.913513183594	-1041.05419921875	-288.7851257324219	766.6978149414064	-1050.30615234375	-240.960922241211	767.8327026367189	-1047.137451171875	-316.7348327636719	713.9507446289064	-1037.086303710938	-303.8921813964844	554.0191650390626	-1036.189208984375	-284.9254455566407	538.1629638671876	-916.2041625976565	-277.7902526855469	372.5160217285157	-983.084411621094	-308.9069213867188	333.4066162109376	-1056.796508789063	-276.4467163085938	328.6818847656251	-1023.096618652344	-290.0859680175782	247.7488403320313	-1000.477355957031	-344.1051940917969	133.5364990234375	-1054.830932617188	-321.8233337402344	138.3602447509766	-971.7836914062502	-407.9812927246095	111.6669235229492	-1006.810974121094	-202.5455474853516	63.61684799194337	-986.8267211914065	-200.5664062500001	62.68772888183595	-1033.529052734375	-238.0798645019532	49.65648269653322	-1079.4873046875	-294.9057006835938	796.9244384765627	-667.8000488281251	-255.6670532226563	741.3798217773439	-670.4064331054689	-224.3727111816407	743.0816040039064	-679.0916137695314	-284.4717407226563	662.8121337890626	-684.7152099609376	-293.0725097656251	546.2202148437501	-693.3144531250001	-307.3252258300782	540.8513793945314	-817.4259033203127	-257.8130187988282	416.3894042968751	-722.8386840820314	-326.2702941894532	348.2908630371094	-669.1525268554689	-286.4888916015626	339.6084594726563	-690.5663452148439	-281.2165832519532	288.2615356445313	-716.8673706054689	-351.8974609375001	139.5416564941407	-697.0032958984376	-414.4518432617189	113.310173034668	-737.3812255859376	-212.2693481445313	66.23253631591798	-772.734069824219	-203.7513427734376	61.55606842041017	-736.1972045898439	-239.7570190429688	48.44663238525392	-680.8131713867189	226.3347778320313	1565.498901367188	-849.1054687500002	-273.3334960937501	1544.701293945313	-857.5161743164065	207.1018981933594	1528.49609375	-919.9497680664065	-337.4270324707032	144.2366790771485	-779.8150634765627	
1133	5.66	-240.1474761962891	1809.233276367188	-854.3833618164065	-374.2146606445313	1764.295654296875	-924.6199951171877	-405.8263549804689	1742.171264648438	-762.7091064453126	-417.1898193359376	1567.638793945313	-852.3239746093752	-393.6626892089845	1263.209228515625	-850.4024047851565	-327.5602722167969	1596.801025390625	-1000.020324707031	-161.6535034179688	1573.755493164063	-1098.613525390625	-134.9705810546875	1584.912719726563	-1057.047729492188	-92.21150970458986	1569.783203125	-1098.532592773438	-35.35781860351563	1568.412841796875	-1087.143920898438	-44.94413375854493	1492.922241210938	-1074.387084960938	217.9222564697266	1579.641723632813	-968.6680908203127	229.0857849121094	1593.231567382813	-866.7683715820315	-326.5837097167969	1579.308959960938	-694.8704833984376	-168.3869171142578	1553.584350585938	-596.2306518554689	-139.4831237792969	1570.58349609375	-635.6376953125001	-98.33045959472659	1554.69970703125	-593.6407470703126	-37.02307128906251	1560.137939453125	-604.1629028320314	-38.56166076660157	1478.647216796875	-617.4935302734376	212.5934295654297	1577.854736328125	-734.1565551757814	-214.199935913086	1079.0986328125	-965.4228515625002	-194.0458984375001	1064.796264648438	-750.6431274414064	-374.9339294433594	1117.787353515625	-841.662780761719	-380.0829772949219	1084.402099609375	-867.6570434570315	-374.0957641601563	1087.918090820313	-810.5508422851565	-320.3644714355469	844.9609375000002	-1040.860473632813	-288.7337036132813	766.7795410156251	-1050.150268554688	-240.8825988769532	767.9018554687501	-1047.02099609375	-316.7114257812501	714.0327148437501	-1036.887084960938	-303.9182739257813	554.0652465820314	-1036.045776367188	-284.7930297851563	538.1221923828126	-916.0899047851565	-277.7850341796876	372.5211181640626	-983.0603637695315	-308.8400573730469	333.4761657714844	-1056.763549804688	-276.4827880859376	328.7214355468751	-1023.046203613281	-290.0834350585938	247.7010040283204	-1000.459533691406	-344.1176147460938	133.560302734375	-1054.824829101563	-321.7283935546876	138.2899932861328	-971.710144042969	-407.9602661132814	111.7279739379883	-1006.84228515625	-202.5828857421876	63.56971740722658	-986.8430786132815	-200.5713806152344	62.70061492919923	-1033.52880859375	-238.1456451416016	49.65377044677736	-1079.525512695313	-294.7187805175782	796.8045043945315	-667.3798217773439	-255.3202056884766	741.5515136718751	-670.6547241210939	-224.1042480468751	743.0261230468751	-679.0979614257814	-284.4216918945313	662.7744140625001	-684.5665893554689	-292.9494018554688	546.2204589843751	-693.2175292968751	-307.3359069824219	540.8724365234376	-817.2954101562502	-257.7814331054688	416.291717529297	-722.8027954101564	-326.2235412597657	348.3196716308594	-669.0802001953126	-286.4449462890626	339.6144409179688	-690.5940551757814	-280.9730224609376	288.0973815917969	-716.8527221679689	-351.8719787597657	139.4994659423828	-696.9829711914064	-414.4438476562501	113.2628555297852	-737.3643188476564	-212.2374877929688	66.20073699951173	-772.7222900390627	-203.7633209228516	61.55072021484376	-736.1864013671876	-239.749252319336	48.42926406860353	-680.7960815429689	226.4476623535157	1565.573852539063	-848.8391113281252	-273.4212951660157	1544.687377929688	-857.2211914062502	207.2689971923829	1528.72900390625	-919.661315917969	-337.3612976074219	144.2296905517578	-779.8148193359377	
1134	5.665	-240.2341613769532	1809.201782226563	-853.956726074219	-374.1796875000001	1764.341064453125	-924.218688964844	-405.8724670410157	1742.07861328125	-762.2933959960939	-417.1032104492189	1567.6259765625	-851.967224121094	-393.423553466797	1263.1298828125	-850.1427001953127	-327.4669494628907	1596.747924804688	-999.7290039062502	-161.6117553710938	1574.006103515625	-1098.255126953125	-134.9873199462891	1584.932250976563	-1056.674194335938	-92.09280395507814	1569.833618164063	-1098.140625	-35.46955871582032	1568.57373046875	-1086.576171875	-44.90746307373048	1492.938598632813	-1074.080810546875	218.0126647949219	1579.539184570313	-968.1968383789065	229.1538238525391	1593.254028320313	-866.4719848632815	-326.4937133789063	1579.404907226563	-694.5908813476564	-168.25390625	1553.449462890625	-595.8412475585939	-139.4788360595703	1570.729248046875	-635.5085449218751	-98.29152679443362	1554.765258789063	-593.3754882812501	-36.94733428955079	1560.044799804688	-603.9124755859376	-38.52301025390626	1478.582275390625	-617.1863403320314	212.664047241211	1577.98486328125	-733.8773803710939	-213.9951782226563	1079.09375	-965.3039550781252	-193.712875366211	1064.705444335938	-750.5203247070314	-374.6065673828126	1117.813354492188	-841.4356079101565	-379.3851928710938	1084.051147460938	-867.5545043945315	-373.9128112792969	1087.912109375	-810.276062011719	-320.2687683105469	845.1091308593752	-1040.709228515625	-288.7202758789063	766.7637939453126	-1050.056518554688	-240.5139617919922	767.5643310546876	-1046.83203125	-316.7606506347657	714.0165405273439	-1036.685668945313	-303.9731750488282	554.1077270507814	-1035.931884765625	-284.8290710449219	538.1358642578126	-915.995788574219	-277.7573547363282	372.5440979003907	-982.9738769531252	-309.5498046875001	332.8851623535157	-1056.7333984375	-276.4703674316407	328.6768188476563	-1022.982543945313	-290.0580139160157	247.7222900390626	-1000.436828613281	-344.1467285156251	133.6231994628907	-1054.808959960938	-321.7390441894532	138.3216094970703	-971.6887817382815	-407.9218139648439	111.665641784668	-1006.809814453125	-202.5625915527344	63.58644104003908	-986.8331298828127	-200.5604858398438	62.66635131835939	-1033.553100585938	-238.0876159667969	49.71481704711915	-1079.552001953125	-294.5530090332032	796.7430419921877	-668.0776977539064	-255.1203155517579	741.4804077148439	-670.5432128906251	-223.9049530029297	743.0152587890626	-679.0598144531251	-284.1918640136719	662.7990112304689	-684.4301147460939	-292.8375549316407	546.2324829101564	-693.1689453125001	-307.3441162109376	540.9600219726564	-817.1965332031252	-257.6489868164063	416.213348388672	-722.7864990234376	-326.1782226562501	348.2955932617188	-669.1007080078126	-286.3991088867188	339.6048278808594	-690.4834594726564	-281.0647277832032	288.2937316894532	-716.8880615234376	-351.8738098144532	139.48583984375	-696.9091186523439	-414.4124450683595	113.2521514892578	-737.4154663085939	-212.2372283935547	66.22328186035158	-772.703796386719	-203.7636718750001	61.56502532958986	-736.1808471679689	-239.7449493408204	48.45515823364259	-680.8536376953126	226.4644317626954	1566.517578125	-848.5378417968752	-273.5793762207032	1544.591674804688	-856.900085449219	207.3155975341797	1528.64501953125	-919.3090820312502	-337.2752990722657	144.2297821044922	-779.8179931640627	
1135	5.67	-240.0836334228516	1809.169067382813	-853.5949707031252	-374.2945861816407	1764.224243164063	-923.9306640625002	-405.9068298339845	1742.0107421875	-761.8291015625001	-417.0723876953126	1567.583251953125	-851.6021118164065	-393.1927490234376	1263.009033203125	-849.9036254882815	-327.4371337890626	1596.805053710938	-999.4954833984377	-161.5659790039063	1573.99267578125	-1097.866943359375	-134.8476104736328	1585.021728515625	-1056.326538085938	-92.09756469726564	1569.906127929688	-1097.85400390625	-35.30243301391602	1568.632934570313	-1086.256591796875	-44.84136581420899	1492.954833984375	-1073.679077148438	218.1176757812501	1579.54833984375	-967.9335937500002	229.1775360107422	1593.21435546875	-866.2180786132815	-326.4277343750001	1579.29296875	-694.3064575195314	-168.1922760009766	1553.3623046875	-595.5833740234376	-139.4397125244141	1570.783813476563	-635.2506713867189	-98.26442718505862	1554.801025390625	-593.0676879882814	-36.83699417114259	1560.01318359375	-603.6405029296876	-38.37833404541016	1478.607788085938	-617.0070800781251	212.7550811767579	1578.029663085938	-733.5757446289064	-213.8445434570313	1079.12646484375	-965.1714477539065	-193.3078765869141	1064.8017578125	-750.4373779296876	-374.4448547363282	1117.68115234375	-841.2163696289065	-379.3194885253907	1083.909423828125	-867.3188476562502	-373.7608032226563	1087.915893554688	-810.0444946289065	-320.1937255859376	845.1770629882815	-1040.43115234375	-288.6864318847657	766.8004150390626	-1049.900756835938	-240.8795928955079	767.9233398437501	-1046.7890625	-316.6870422363282	714.1425781250001	-1036.47412109375	-304.0264892578126	554.1203002929689	-1035.786865234375	-284.7894592285157	538.1390991210939	-915.937683105469	-277.7766723632813	372.5547180175782	-982.906188964844	-309.1098937988282	333.4832153320313	-1056.606567382813	-276.4976806640626	328.7506408691407	-1022.964477539063	-290.0635681152344	247.7142333984376	-1000.440124511719	-344.1554565429688	133.5982818603516	-1054.840087890625	-321.8402709960938	138.3664245605469	-971.722595214844	-407.9739074707032	111.6996231079102	-1006.783813476563	-202.5569305419922	63.56612396240236	-986.831970214844	-200.560531616211	62.6808319091797	-1033.513305664063	-238.0652465820313	49.7345428466797	-1079.55908203125	-294.2879638671876	796.7867431640627	-667.8825073242189	-254.8585815429688	741.4042968750001	-670.3577270507814	-223.791244506836	743.0229492187501	-679.0035400390626	-283.9833068847657	662.7811279296876	-684.3802490234376	-292.7414245605469	546.1977539062501	-693.0825195312501	-307.2993164062501	540.9812011718751	-817.1212158203127	-257.5954284667969	416.2806396484376	-722.7619018554689	-326.1444396972657	348.3494873046876	-669.1026611328126	-286.3470764160157	339.6084289550782	-690.4283447265626	-280.8644714355469	288.1116027832032	-716.8115844726564	-351.8132324218751	139.5154724121094	-696.8348388671876	-414.4095153808595	113.3038635253907	-737.3963012695314	-212.2067565917969	66.20703125000001	-772.7083740234377	-203.7916717529297	61.55923461914064	-736.2319335937501	-239.7099304199219	48.44839096069337	-680.8594360351564	226.4693603515626	1566.590209960938	-848.2843017578127	-273.8638610839844	1544.509521484375	-856.5291748046877	207.3485870361329	1528.737182617188	-919.0498657226565	-337.2404785156251	144.2203521728516	-779.8258056640627	
